<svg xmlns="http://www.w3.org/2000/svg" viewBox="0 0 599.88 81.71"><defs><style>.cls-1{fill:#191919;}.cls-2{fill:#cc313a;}.cls-3{fill:#124a9b;}</style></defs><g id="레이어_2" data-name="레이어 2"><g id="Layer_1" data-name="Layer 1"><path class="cls-1" d="M0,20H12v11a39.8,39.8,0,0,1,11.37-9.25,25.9,25.9,0,0,1,12-3,12.46,12.46,0,0,1,5.92,1.45,16.29,16.29,0,0,1,4.82,3.93A18.66,18.66,0,0,1,49.37,30a20.79,20.79,0,0,1,1.19,7.1V81.71h-12V39.08q0-6-2.68-9.06A8.75,8.75,0,0,0,29,27a14.1,14.1,0,0,0-4,.63,25.68,25.68,0,0,0-4.33,1.75,32.47,32.47,0,0,0-4.4,2.71A39.63,39.63,0,0,0,12,35.64V81.71H0Z"/><path class="cls-1" d="M108.79,81.71h-12V72.12c-1.41,1.1-2.8,2.22-4.16,3.34a33.48,33.48,0,0,1-4.43,3.07,24.61,24.61,0,0,1-5.29,2.28,22.82,22.82,0,0,1-6.74.9,17.14,17.14,0,0,1-6.44-1.16,13.72,13.72,0,0,1-7.94-8,16.23,16.23,0,0,1-1.08-5.94,15.4,15.4,0,0,1,1.55-7,19.18,19.18,0,0,1,4.23-5.58,30.68,30.68,0,0,1,6.21-4.4,61.8,61.8,0,0,1,7.57-3.44c2.68-1,5.44-1.9,8.26-2.67s5.57-1.51,8.26-2.22V37.55a24.84,24.84,0,0,0-.82-6.9,12.12,12.12,0,0,0-2.35-4.56,8.49,8.49,0,0,0-3.67-2.51,14.41,14.41,0,0,0-4.86-.76,13.05,13.05,0,0,0-5,.79,7.83,7.83,0,0,0-3,2.08,7.09,7.09,0,0,0-1.49,2.91,14.2,14.2,0,0,0-.4,3.34A16.62,16.62,0,0,1,75,35,7.76,7.76,0,0,1,74,37.55a4.89,4.89,0,0,1-1.82,1.79,5.89,5.89,0,0,1-2.94.66,5.74,5.74,0,0,1-4.53-2A7.44,7.44,0,0,1,63,32.93a9.2,9.2,0,0,1,1.95-5.59,16.73,16.73,0,0,1,5.29-4.49,30.53,30.53,0,0,1,7.76-3,39.21,39.21,0,0,1,9.32-1.08,37.55,37.55,0,0,1,10,1.15A18.15,18.15,0,0,1,104,23.18a11.82,11.82,0,0,1,3.67,5.06,18.48,18.48,0,0,1,1.12,6.61Zm-12-36.49a81.29,81.29,0,0,0-8.13,3,52.26,52.26,0,0,0-7.8,4.13A25.63,25.63,0,0,0,75,57.48a9.29,9.29,0,0,0-2.31,6,10.73,10.73,0,0,0,.82,4.17,12,12,0,0,0,2.19,3.47,10.84,10.84,0,0,0,3.1,2.38,8,8,0,0,0,3.67.89,13.87,13.87,0,0,0,3.87-.53,19.44,19.44,0,0,0,3.53-1.42,27.82,27.82,0,0,0,3.44-2.12c1.14-.81,2.32-1.66,3.5-2.54Z"/><path class="cls-1" d="M124.78,20h12v11.3a45.24,45.24,0,0,1,5.19-4.79,44.55,44.55,0,0,1,5.95-4,35.28,35.28,0,0,1,6.18-2.74,18.4,18.4,0,0,1,5.81-1,16.74,16.74,0,0,1,5.42.95,18.48,18.48,0,0,1,5.09,2.68,18.87,18.87,0,0,1,4,4,12.53,12.53,0,0,1,2.21,5.09,20.3,20.3,0,0,1,4.13-4.95,30.47,30.47,0,0,1,5.82-4,35,35,0,0,1,6.74-2.74,24.78,24.78,0,0,1,7-1,14,14,0,0,1,6.38,1.51,17.53,17.53,0,0,1,5.25,4.1,20,20,0,0,1,3.57,6,20.3,20.3,0,0,1,1.32,7.34V81.71h-12V39.47a13.43,13.43,0,0,0-.86-4.82,13.22,13.22,0,0,0-2.34-4A11.46,11.46,0,0,0,198.12,28,9,9,0,0,0,194,27a20.2,20.2,0,0,0-5,.66,23.67,23.67,0,0,0-4.9,1.85,24.88,24.88,0,0,0-4.22,2.74,13.92,13.92,0,0,0-3,3.34V81.71h-12V39.47a13,13,0,0,0-.89-4.82,14,14,0,0,0-2.38-4A11.22,11.22,0,0,0,158.1,28a9.19,9.19,0,0,0-4.16-1,17,17,0,0,0-4.7.7,26.58,26.58,0,0,0-4.79,1.88,26.92,26.92,0,0,0-4.33,2.74,21,21,0,0,0-3.37,3.27V81.71h-12Z"/><path class="cls-1" d="M260,81.71a33.19,33.19,0,0,1-12.79-2.42,31,31,0,0,1-10.11-6.61A30.22,30.22,0,0,1,228,51a32.83,32.83,0,0,1,2.38-12.52,31.17,31.17,0,0,1,6.64-10.21A31.55,31.55,0,0,1,260,18.79a34.42,34.42,0,0,1,12.73,2.31,31.32,31.32,0,0,1,10.11,6.34,29,29,0,0,1,6.64,9.42,28.53,28.53,0,0,1,2.38,11.6,35.1,35.1,0,0,1-2.38,12.92,32.43,32.43,0,0,1-6.64,10.55,31.87,31.87,0,0,1-10.11,7.13A30.49,30.49,0,0,1,260,81.71Zm2.25-4.5a12.09,12.09,0,0,0,6.51-1.82,17.24,17.24,0,0,0,5.09-4.89,24.43,24.43,0,0,0,3.34-7.13,30.76,30.76,0,0,0,1.18-8.63,64,64,0,0,0-1.12-12.29,31.42,31.42,0,0,0-3.64-10A18.87,18.87,0,0,0,267,25.72,19.08,19.08,0,0,0,257,23.28,10.87,10.87,0,0,0,251.19,25a17.79,17.79,0,0,0-5,4.79,25.47,25.47,0,0,0-3.47,7.07,28.09,28.09,0,0,0-1.28,8.6,53.33,53.33,0,0,0,1.38,12.39A33.78,33.78,0,0,0,246.9,68a21.11,21.11,0,0,0,6.54,6.77A15.91,15.91,0,0,0,262.2,77.21Z"/><path class="cls-1" d="M332.72,81.71a33.19,33.19,0,0,1-12.79-2.42,31,31,0,0,1-10.11-6.61,30.11,30.11,0,0,1-9-21.71,33,33,0,0,1,2.37-12.52,31.43,31.43,0,0,1,29.55-19.66,34.33,34.33,0,0,1,12.72,2.31,31.32,31.32,0,0,1,10.11,6.34,28.91,28.91,0,0,1,6.65,9.42,28.36,28.36,0,0,1,2.38,11.6,34.89,34.89,0,0,1-2.38,12.92,32.29,32.29,0,0,1-6.65,10.55,31.87,31.87,0,0,1-10.11,7.13A30.41,30.41,0,0,1,332.72,81.71Zm2.25-4.5a12.07,12.07,0,0,0,6.51-1.82,17.36,17.36,0,0,0,5.09-4.89,24.43,24.43,0,0,0,3.34-7.13,30.76,30.76,0,0,0,1.18-8.63A64,64,0,0,0,350,42.45a31.66,31.66,0,0,0-3.63-10,17.93,17.93,0,0,0-16.52-9.15A10.9,10.9,0,0,0,324,25a17.65,17.65,0,0,0-5,4.79,25.47,25.47,0,0,0-3.47,7.07,28.09,28.09,0,0,0-1.29,8.6,53.32,53.32,0,0,0,1.39,12.39A33.78,33.78,0,0,0,319.67,68a21.11,21.11,0,0,0,6.54,6.77A15.91,15.91,0,0,0,335,77.21Z"/><path class="cls-1" d="M432.39,77.54a13.29,13.29,0,0,0,4.53-.75,11.87,11.87,0,0,0,3.57-2,9.94,9.94,0,0,0,2.34-2.84,6.78,6.78,0,0,0,.86-3.31,8.46,8.46,0,0,0-1.38-4.83,15.49,15.49,0,0,0-3.67-3.7,31.29,31.29,0,0,0-5.19-3q-2.91-1.35-5.92-2.78t-5.91-3.07a25.86,25.86,0,0,1-5.19-3.84,17.51,17.51,0,0,1-3.67-5,15.13,15.13,0,0,1-1.38-6.74,14.77,14.77,0,0,1,1.55-6.74,16.2,16.2,0,0,1,4.29-5.36,20.31,20.31,0,0,1,6.51-3.5A26.21,26.21,0,0,1,432,18.79a35.75,35.75,0,0,1,5.62.42,18.63,18.63,0,0,1,5.12,1.63,21.58,21.58,0,0,1,5,3.4A39.28,39.28,0,0,1,453,30l-4.37,3.9a25.56,25.56,0,0,0-7.7-8.36,16.48,16.48,0,0,0-9.09-2.74,16.79,16.79,0,0,0-4.69.62,12.22,12.22,0,0,0-3.63,1.72,8,8,0,0,0-2.35,2.55,6.18,6.18,0,0,0-.83,3.1,7.65,7.65,0,0,0,1.52,4.73,16.19,16.19,0,0,0,4,3.67,35.73,35.73,0,0,0,5.62,3q3.13,1.36,6.45,2.78c2.2.95,4.35,2,6.44,3.08a29.14,29.14,0,0,1,5.62,3.8,17.3,17.3,0,0,1,4,5,13.69,13.69,0,0,1,1.53,6.6A18.11,18.11,0,0,1,454,70.64a15.51,15.51,0,0,1-4.3,5.78,21.29,21.29,0,0,1-7.2,3.87,32.86,32.86,0,0,1-10.15,1.42,36.27,36.27,0,0,1-5.42-.43,24.29,24.29,0,0,1-5.61-1.62,25.31,25.31,0,0,1-5.69-3.4,30.89,30.89,0,0,1-5.55-5.79L415,66a49.38,49.38,0,0,0,4.2,5.29,23.17,23.17,0,0,0,4.09,3.57,15.1,15.1,0,0,0,4.3,2A17.45,17.45,0,0,0,432.39,77.54Z"/><path class="cls-1" d="M497,81.71a33.15,33.15,0,0,1-12.79-2.42,31,31,0,0,1-10.12-6.61A30.22,30.22,0,0,1,465,51a32.83,32.83,0,0,1,2.38-12.52A31.43,31.43,0,0,1,497,18.79a34.37,34.37,0,0,1,12.72,2.31,31.32,31.32,0,0,1,10.11,6.34,29,29,0,0,1,6.64,9.42,28.36,28.36,0,0,1,2.38,11.6,34.89,34.89,0,0,1-2.38,12.92,32.43,32.43,0,0,1-6.64,10.55,31.87,31.87,0,0,1-10.11,7.13A30.44,30.44,0,0,1,497,81.71Zm2.24-4.5a12.07,12.07,0,0,0,6.51-1.82,17.24,17.24,0,0,0,5.09-4.89,24.18,24.18,0,0,0,3.34-7.13,30.4,30.4,0,0,0,1.19-8.63,64.76,64.76,0,0,0-1.12-12.29,31.66,31.66,0,0,0-3.64-10,17.93,17.93,0,0,0-16.52-9.15A10.87,10.87,0,0,0,488.21,25a17.69,17.69,0,0,0-5,4.79,25.45,25.45,0,0,0-3.46,7.07,28.09,28.09,0,0,0-1.29,8.6,53.33,53.33,0,0,0,1.38,12.39A33.78,33.78,0,0,0,483.91,68a21.14,21.14,0,0,0,6.55,6.77A15.86,15.86,0,0,0,499.21,77.21Z"/><path class="cls-1" d="M540.32,20h11.9V31.47a52.09,52.09,0,0,1,3.8-4.85,33,33,0,0,1,4.2-4,19.84,19.84,0,0,1,4.52-2.78,11.62,11.62,0,0,1,4.73-1,10.87,10.87,0,0,1,3.67.59A10.33,10.33,0,0,1,576.08,21a7.78,7.78,0,0,1,2,2.32,5.6,5.6,0,0,1,.73,2.77A5.32,5.32,0,0,1,577,30.48a7.82,7.82,0,0,1-5.06,1.46,10,10,0,0,1-3.2-.43,17.71,17.71,0,0,1-2.21-.93c-.67-.33-1.33-.64-2-.92a6.49,6.49,0,0,0-2.58-.43q-2.37,0-4.79,2.64a44.51,44.51,0,0,0-4.92,6.75V81.71h-11.9Z"/><path class="cls-1" d="M592.94,0a8.06,8.06,0,0,1,2.67.46,6.78,6.78,0,0,1,2.21,1.29,6.45,6.45,0,0,1,1.49,1.92A5,5,0,0,1,599.88,6a4.89,4.89,0,0,1-.57,2.29,6.54,6.54,0,0,1-1.49,1.91,6.84,6.84,0,0,1-2.21,1.32,7.19,7.19,0,0,1-2.67.5,7.37,7.37,0,0,1-4.83-1.82,6.71,6.71,0,0,1-1.49-1.91A5,5,0,0,1,586.06,6a5.11,5.11,0,0,1,.56-2.34,6.62,6.62,0,0,1,1.49-1.92A6.84,6.84,0,0,1,590.29.46,7.81,7.81,0,0,1,592.94,0Zm-5.82,22.22,8.39-3.43H599V81.71h-11.9Z"/><polygon class="cls-2" points="376 23.44 396.85 23.44 386.42 38.4 376 23.44"/><polygon class="cls-3" points="396.85 76.92 376 76.92 386.42 61.95 396.85 76.92"/></g></g></svg>